<?xml version="1.0" encoding="UTF-8"?>
<svg xmlns="http://www.w3.org/2000/svg" xmlns:xlink="http://www.w3.org/1999/xlink" width="240px" height="240px" viewBox="0 0 240 240" version="1.1">
<g id="surface1">
<path style=" stroke:none;fill-rule:evenodd;fill:rgb(0%,0%,0%);fill-opacity:1;" d="M 121.011719 0 C 56.035156 0 3.363281 53.726562 3.363281 120 C 3.363281 137.757812 7.144531 154.613281 13.933594 169.777344 C 34.796875 178.523438 69.667969 181.378906 121.386719 160.367188 C 151.949219 147.949219 186.296875 149.25 216.625 160.765625 C 221.019531 162.433594 225.492188 163.953125 230 165.261719 C 235.582031 151.292969 238.65625 136.015625 238.65625 120 C 238.65625 53.726562 185.984375 0 121.011719 0 Z M 184.539062 120 C 184.539062 84.210938 156.097656 55.199219 121.011719 55.199219 C 85.925781 55.199219 57.480469 84.210938 57.480469 120 Z M 224.238281 177.609375 C 218.121094 188.992188 210.246094 199.25 200.984375 208.011719 C 173.652344 198.621094 143.472656 197.511719 115.835938 207.390625 C 92.644531 215.683594 72.925781 219.464844 56.367188 220.277344 C 43.3125 211.503906 32.070312 200.144531 23.339844 186.917969 C 47.988281 192.589844 82.273438 190.796875 126.546875 172.808594 C 153.441406 161.878906 184.144531 162.867188 211.699219 173.328125 C 215.738281 174.859375 219.933594 176.308594 224.238281 177.609375 Z M 120.480469 220.042969 C 142.222656 212.269531 166.0625 212.136719 188.550781 218.269531 C 169.433594 231.960938 146.144531 240 121.011719 240 C 105.589844 240 90.863281 236.972656 77.367188 231.472656 C 90.46875 229.324219 104.832031 225.636719 120.480469 220.042969 Z M 120.480469 220.042969 "/>
</g>
</svg>
